<mxfile host="Electron" modified="2024-01-15T16:12:35.358Z" agent="Mozilla/5.0 (Windows NT 10.0; Win64; x64) AppleWebKit/537.36 (KHTML, like Gecko) draw.io/22.1.18 Chrome/120.0.6099.199 Electron/28.1.2 Safari/537.36" etag="KF0rlihkPE3aheMrzvEp" version="22.1.18" type="device">
  <diagram name="Seite-1" id="hRJWZfks-HoJUIz_dUGj">
    <mxGraphModel dx="1050" dy="629" grid="1" gridSize="10" guides="1" tooltips="1" connect="1" arrows="1" fold="1" page="1" pageScale="1" pageWidth="827" pageHeight="1169" math="0" shadow="0">
      <root>
        <mxCell id="0" />
        <mxCell id="1" parent="0" />
        <mxCell id="VAf6BFZTtdyBpiS565LI-10" style="edgeStyle=orthogonalEdgeStyle;rounded=0;orthogonalLoop=1;jettySize=auto;html=1;entryX=0.5;entryY=1;entryDx=0;entryDy=0;endArrow=block;endFill=0;endSize=10;" parent="1" source="VAf6BFZTtdyBpiS565LI-2" target="VAf6BFZTtdyBpiS565LI-6" edge="1">
          <mxGeometry relative="1" as="geometry" />
        </mxCell>
        <mxCell id="VAf6BFZTtdyBpiS565LI-2" value="AES70_OCP1_StringGeneratorApplication" style="swimlane;fontStyle=0;childLayout=stackLayout;horizontal=1;startSize=30;horizontalStack=0;resizeParent=1;resizeParentMax=0;resizeLast=0;collapsible=1;marginBottom=0;whiteSpace=wrap;html=1;" parent="1" vertex="1">
          <mxGeometry x="40" y="260" width="260" height="60" as="geometry" />
        </mxCell>
        <mxCell id="VAf6BFZTtdyBpiS565LI-5" value="MainWindow m_mainWindow" style="text;strokeColor=none;fillColor=none;align=left;verticalAlign=middle;spacingLeft=4;spacingRight=4;overflow=hidden;points=[[0,0.5],[1,0.5]];portConstraint=eastwest;rotatable=0;whiteSpace=wrap;html=1;" parent="VAf6BFZTtdyBpiS565LI-2" vertex="1">
          <mxGeometry y="30" width="260" height="30" as="geometry" />
        </mxCell>
        <mxCell id="VAf6BFZTtdyBpiS565LI-6" value="juce::JUCEApplication" style="swimlane;fontStyle=0;childLayout=stackLayout;horizontal=1;startSize=30;horizontalStack=0;resizeParent=1;resizeParentMax=0;resizeLast=0;collapsible=1;marginBottom=0;whiteSpace=wrap;html=1;" parent="1" vertex="1">
          <mxGeometry x="100" y="120" width="140" height="60" as="geometry" />
        </mxCell>
        <mxCell id="VAf6BFZTtdyBpiS565LI-11" value="juce::DocumentWindow" style="swimlane;fontStyle=0;childLayout=stackLayout;horizontal=1;startSize=30;horizontalStack=0;resizeParent=1;resizeParentMax=0;resizeLast=0;collapsible=1;marginBottom=0;whiteSpace=wrap;html=1;" parent="1" vertex="1">
          <mxGeometry x="440" y="120" width="140" height="60" as="geometry" />
        </mxCell>
        <mxCell id="VAf6BFZTtdyBpiS565LI-16" value="contentComponent" style="text;strokeColor=none;fillColor=none;align=left;verticalAlign=middle;spacingLeft=4;spacingRight=4;overflow=hidden;points=[[0,0.5],[1,0.5]];portConstraint=eastwest;rotatable=0;whiteSpace=wrap;html=1;" parent="VAf6BFZTtdyBpiS565LI-11" vertex="1">
          <mxGeometry y="30" width="140" height="30" as="geometry" />
        </mxCell>
        <mxCell id="VAf6BFZTtdyBpiS565LI-23" style="edgeStyle=orthogonalEdgeStyle;rounded=0;orthogonalLoop=1;jettySize=auto;html=1;endArrow=block;endFill=0;endSize=10;" parent="1" source="VAf6BFZTtdyBpiS565LI-15" target="VAf6BFZTtdyBpiS565LI-11" edge="1">
          <mxGeometry relative="1" as="geometry">
            <mxPoint x="470" y="230" as="targetPoint" />
          </mxGeometry>
        </mxCell>
        <mxCell id="VAf6BFZTtdyBpiS565LI-24" style="edgeStyle=orthogonalEdgeStyle;rounded=0;orthogonalLoop=1;jettySize=auto;html=1;endArrow=diamond;endFill=1;entryX=1;entryY=0.5;entryDx=0;entryDy=0;endSize=10;" parent="1" source="VAf6BFZTtdyBpiS565LI-15" target="VAf6BFZTtdyBpiS565LI-5" edge="1">
          <mxGeometry relative="1" as="geometry" />
        </mxCell>
        <mxCell id="2Vb1Hv925RNZtMaHiqXp-9" value="1" style="edgeLabel;html=1;align=center;verticalAlign=middle;resizable=0;points=[];fontSize=15;" vertex="1" connectable="0" parent="VAf6BFZTtdyBpiS565LI-24">
          <mxGeometry x="-0.1" y="1" relative="1" as="geometry">
            <mxPoint x="48" y="-16" as="offset" />
          </mxGeometry>
        </mxCell>
        <mxCell id="VAf6BFZTtdyBpiS565LI-15" value="MainWindow" style="swimlane;fontStyle=0;childLayout=stackLayout;horizontal=1;startSize=30;horizontalStack=0;resizeParent=1;resizeParentMax=0;resizeLast=0;collapsible=1;marginBottom=0;whiteSpace=wrap;html=1;" parent="1" vertex="1">
          <mxGeometry x="440" y="275" width="140" height="60" as="geometry" />
        </mxCell>
        <mxCell id="VAf6BFZTtdyBpiS565LI-25" style="edgeStyle=orthogonalEdgeStyle;rounded=0;orthogonalLoop=1;jettySize=auto;html=1;entryX=0.5;entryY=1;entryDx=0;entryDy=0;endArrow=diamond;endFill=1;endSize=10;" parent="1" source="VAf6BFZTtdyBpiS565LI-19" target="VAf6BFZTtdyBpiS565LI-15" edge="1">
          <mxGeometry relative="1" as="geometry" />
        </mxCell>
        <mxCell id="2Vb1Hv925RNZtMaHiqXp-10" value="1" style="edgeLabel;html=1;align=center;verticalAlign=middle;resizable=0;points=[];fontSize=15;" vertex="1" connectable="0" parent="VAf6BFZTtdyBpiS565LI-25">
          <mxGeometry x="-0.0133" y="1" relative="1" as="geometry">
            <mxPoint x="11" y="17" as="offset" />
          </mxGeometry>
        </mxCell>
        <mxCell id="VAf6BFZTtdyBpiS565LI-19" value="MainTabbedComponent" style="swimlane;fontStyle=0;childLayout=stackLayout;horizontal=1;startSize=30;horizontalStack=0;resizeParent=1;resizeParentMax=0;resizeLast=0;collapsible=1;marginBottom=0;whiteSpace=wrap;html=1;swimlaneLine=1;" parent="1" vertex="1">
          <mxGeometry x="425" y="410" width="170" height="120" as="geometry" />
        </mxCell>
        <mxCell id="VAf6BFZTtdyBpiS565LI-28" value="SendCommandToDevice" style="text;html=1;strokeColor=none;fillColor=none;align=center;verticalAlign=middle;whiteSpace=wrap;rounded=0;" parent="VAf6BFZTtdyBpiS565LI-19" vertex="1">
          <mxGeometry y="30" width="170" height="30" as="geometry" />
        </mxCell>
        <mxCell id="VAf6BFZTtdyBpiS565LI-20" value="m_nanoOcp1Client" style="text;strokeColor=none;fillColor=none;align=left;verticalAlign=middle;spacingLeft=4;spacingRight=4;overflow=hidden;points=[[0,0.5],[1,0.5]];portConstraint=eastwest;rotatable=0;whiteSpace=wrap;html=1;" parent="VAf6BFZTtdyBpiS565LI-19" vertex="1">
          <mxGeometry y="60" width="170" height="30" as="geometry" />
        </mxCell>
        <mxCell id="VAf6BFZTtdyBpiS565LI-21" value="m_numUnreadMessages" style="text;strokeColor=none;fillColor=none;align=left;verticalAlign=middle;spacingLeft=4;spacingRight=4;overflow=hidden;points=[[0,0.5],[1,0.5]];portConstraint=eastwest;rotatable=0;whiteSpace=wrap;html=1;" parent="VAf6BFZTtdyBpiS565LI-19" vertex="1">
          <mxGeometry y="90" width="170" height="30" as="geometry" />
        </mxCell>
        <mxCell id="VAf6BFZTtdyBpiS565LI-26" value="juce::TabbedComponent" style="swimlane;fontStyle=0;childLayout=stackLayout;horizontal=1;startSize=30;horizontalStack=0;resizeParent=1;resizeParentMax=0;resizeLast=0;collapsible=1;marginBottom=0;whiteSpace=wrap;html=1;" parent="1" vertex="1">
          <mxGeometry x="110" y="390" width="140" height="60" as="geometry" />
        </mxCell>
        <mxCell id="VAf6BFZTtdyBpiS565LI-27" style="edgeStyle=orthogonalEdgeStyle;rounded=0;orthogonalLoop=1;jettySize=auto;html=1;entryX=0.5;entryY=1;entryDx=0;entryDy=0;endArrow=block;endFill=0;endSize=10;" parent="1" source="VAf6BFZTtdyBpiS565LI-21" target="VAf6BFZTtdyBpiS565LI-26" edge="1">
          <mxGeometry relative="1" as="geometry" />
        </mxCell>
        <mxCell id="2Vb1Hv925RNZtMaHiqXp-6" style="edgeStyle=orthogonalEdgeStyle;rounded=0;orthogonalLoop=1;jettySize=auto;html=1;entryX=0.5;entryY=1;entryDx=0;entryDy=0;endArrow=block;endFill=0;endSize=10;" edge="1" parent="1" source="2Vb1Hv925RNZtMaHiqXp-1" target="2Vb1Hv925RNZtMaHiqXp-5">
          <mxGeometry relative="1" as="geometry" />
        </mxCell>
        <mxCell id="2Vb1Hv925RNZtMaHiqXp-1" value="AbstractPage" style="swimlane;fontStyle=0;childLayout=stackLayout;horizontal=1;startSize=30;horizontalStack=0;resizeParent=1;resizeParentMax=0;resizeLast=0;collapsible=1;marginBottom=0;whiteSpace=wrap;html=1;swimlaneLine=1;" vertex="1" parent="1">
          <mxGeometry x="77.5" y="670" width="205" height="90" as="geometry" />
        </mxCell>
        <mxCell id="2Vb1Hv925RNZtMaHiqXp-2" value="UpdateConnectionStatus" style="text;html=1;strokeColor=none;fillColor=none;align=center;verticalAlign=middle;whiteSpace=wrap;rounded=0;" vertex="1" parent="2Vb1Hv925RNZtMaHiqXp-1">
          <mxGeometry y="30" width="205" height="30" as="geometry" />
        </mxCell>
        <mxCell id="2Vb1Hv925RNZtMaHiqXp-3" value="MainTabbedComponent* m_parent" style="text;strokeColor=none;fillColor=none;align=left;verticalAlign=middle;spacingLeft=4;spacingRight=4;overflow=hidden;points=[[0,0.5],[1,0.5]];portConstraint=eastwest;rotatable=0;whiteSpace=wrap;html=1;" vertex="1" parent="2Vb1Hv925RNZtMaHiqXp-1">
          <mxGeometry y="60" width="205" height="30" as="geometry" />
        </mxCell>
        <mxCell id="2Vb1Hv925RNZtMaHiqXp-5" value="juce::Viewport" style="swimlane;fontStyle=0;childLayout=stackLayout;horizontal=1;startSize=30;horizontalStack=0;resizeParent=1;resizeParentMax=0;resizeLast=0;collapsible=1;marginBottom=0;whiteSpace=wrap;html=1;" vertex="1" parent="1">
          <mxGeometry x="110" y="555" width="140" height="60" as="geometry" />
        </mxCell>
        <mxCell id="2Vb1Hv925RNZtMaHiqXp-8" style="edgeStyle=orthogonalEdgeStyle;rounded=0;orthogonalLoop=1;jettySize=auto;html=1;endArrow=diamond;endFill=1;endSize=10;" edge="1" parent="1" source="2Vb1Hv925RNZtMaHiqXp-1" target="VAf6BFZTtdyBpiS565LI-19">
          <mxGeometry relative="1" as="geometry" />
        </mxCell>
        <mxCell id="2Vb1Hv925RNZtMaHiqXp-11" value="1..*" style="edgeLabel;html=1;align=center;verticalAlign=middle;resizable=0;points=[];fontSize=15;" vertex="1" connectable="0" parent="2Vb1Hv925RNZtMaHiqXp-8">
          <mxGeometry x="0.8158" y="-5" relative="1" as="geometry">
            <mxPoint x="-215" y="133" as="offset" />
          </mxGeometry>
        </mxCell>
        <mxCell id="2Vb1Hv925RNZtMaHiqXp-16" style="edgeStyle=orthogonalEdgeStyle;rounded=0;orthogonalLoop=1;jettySize=auto;html=1;endArrow=block;endFill=0;endSize=10;" edge="1" parent="1" source="2Vb1Hv925RNZtMaHiqXp-12" target="2Vb1Hv925RNZtMaHiqXp-1">
          <mxGeometry relative="1" as="geometry" />
        </mxCell>
        <mxCell id="2Vb1Hv925RNZtMaHiqXp-12" value="TestPage" style="swimlane;fontStyle=0;childLayout=stackLayout;horizontal=1;startSize=30;horizontalStack=0;resizeParent=1;resizeParentMax=0;resizeLast=0;collapsible=1;marginBottom=0;whiteSpace=wrap;html=1;swimlaneLine=1;" vertex="1" parent="1">
          <mxGeometry x="77.5" y="820" width="205" height="60" as="geometry" />
        </mxCell>
        <mxCell id="2Vb1Hv925RNZtMaHiqXp-17" style="edgeStyle=orthogonalEdgeStyle;rounded=0;orthogonalLoop=1;jettySize=auto;html=1;endArrow=block;endFill=0;endSize=10;" edge="1" parent="1" source="2Vb1Hv925RNZtMaHiqXp-15" target="2Vb1Hv925RNZtMaHiqXp-1">
          <mxGeometry relative="1" as="geometry">
            <Array as="points">
              <mxPoint x="493" y="790" />
              <mxPoint x="180" y="790" />
            </Array>
          </mxGeometry>
        </mxCell>
        <mxCell id="2Vb1Hv925RNZtMaHiqXp-15" value="StringGeneratorPage" style="swimlane;fontStyle=0;childLayout=stackLayout;horizontal=1;startSize=30;horizontalStack=0;resizeParent=1;resizeParentMax=0;resizeLast=0;collapsible=1;marginBottom=0;whiteSpace=wrap;html=1;swimlaneLine=1;" vertex="1" parent="1">
          <mxGeometry x="390" y="820" width="205" height="60" as="geometry" />
        </mxCell>
      </root>
    </mxGraphModel>
  </diagram>
</mxfile>
